<svg width="80" height="80" viewBox="0 0 80 80" fill="none" xmlns="http://www.w3.org/2000/svg">
<rect width="80" height="80" rx="16" fill="#7311D4" fill-opacity="0.2"/>
<rect x="0.5" y="0.5" width="79" height="79" rx="15.5" stroke="#7311D4" stroke-opacity="0.3"/>
<path d="M32.0184 60C30.9184 60 29.9768 59.6083 29.1934 58.825C28.4101 58.0417 28.0184 57.1 28.0184 56C28.0184 54.9 28.4101 53.9583 29.1934 53.175C29.9768 52.3917 30.9184 52 32.0184 52C33.1184 52 34.0601 52.3917 34.8434 53.175C35.6268 53.9583 36.0184 54.9 36.0184 56C36.0184 57.1 35.6268 58.0417 34.8434 58.825C34.0601 59.6083 33.1184 60 32.0184 60ZM52.0184 60C50.9184 60 49.9768 59.6083 49.1934 58.825C48.4101 58.0417 48.0184 57.1 48.0184 56C48.0184 54.9 48.4101 53.9583 49.1934 53.175C49.9768 52.3917 50.9184 52 52.0184 52C53.1184 52 54.0601 52.3917 54.8434 53.175C55.6268 53.9583 56.0184 54.9 56.0184 56C56.0184 57.1 55.6268 58.0417 54.8434 58.825C54.0601 59.6083 53.1184 60 52.0184 60ZM30.3184 28L35.1184 38H49.1184L54.6184 28H30.3184ZM28.4184 24H57.9184C58.6851 24 59.2684 24.3417 59.6684 25.025C60.0684 25.7083 60.0851 26.4 59.7184 27.1L52.6184 39.9C52.2518 40.5667 51.7601 41.0833 51.1434 41.45C50.5268 41.8167 49.8518 42 49.1184 42H34.2184L32.0184 46H56.0184V50H32.0184C30.5184 50 29.3851 49.3417 28.6184 48.025C27.8518 46.7083 27.8184 45.4 28.5184 44.1L31.2184 39.2L24.0184 24H20.0184V20H26.5184L28.4184 24Z" fill="#7311D4"/>
</svg>
