<svg width="200" height="200" viewBox="0 0 200 200" fill="none" xmlns="http://www.w3.org/2000/svg">
<g clip-path="url(#clip0_115_1086)">
<path d="M70.6868 111.557C66.2992 114.338 61.3061 116.021 56.1302 116.463C54.551 110.693 49.316 106.685 43.3335 106.667H26.6668C19.303 106.667 13.3335 112.636 13.3335 120V186.667C13.3335 194.03 19.303 200 26.6668 200H43.3335C49.3683 199.976 54.6347 195.902 56.1735 190.067C59.0038 190.215 61.7779 190.915 64.3402 192.127C65.6268 192.737 66.8568 193.46 68.0902 194.173C69.9304 195.296 71.8473 196.287 73.8268 197.14C78.988 199.109 84.4765 200.08 90.0002 200H150C154.929 199.997 159.455 197.276 161.768 192.923C164.081 188.57 163.803 183.296 161.047 179.21C164.955 177.865 168.013 174.777 169.32 170.856C170.627 166.936 170.033 162.63 167.714 159.21C172.613 157.533 176.086 153.153 176.602 148C177.119 142.847 174.584 137.866 170.114 135.25C172.18 132.866 173.322 129.821 173.334 126.667C173.334 119.303 167.364 113.333 160 113.333H117.894C123.107 103.407 132.58 81.2166 123.36 65.0766C119.304 57.9866 110.827 52.4399 101.824 57.0266C92.4302 61.7999 94.5335 71.2299 95.5468 75.7566C98.1302 87.3699 89.7668 99.4166 70.6868 111.557ZM43.3335 193.333H26.6668C22.9849 193.333 20.0002 190.348 20.0002 186.667V120C20.0002 116.318 22.9849 113.333 26.6668 113.333H43.3335C47.0154 113.333 50.0002 116.318 50.0002 120V186.667C50.0002 190.348 47.0154 193.333 43.3335 193.333ZM102.054 74.3066C100.547 67.5632 101.224 64.8099 104.847 62.9732C110.727 59.9732 115.617 64.9732 117.574 68.3899C127.537 85.8366 109.537 114.593 109.354 114.883C108.704 115.91 108.663 117.208 109.249 118.273C109.834 119.337 110.952 119.999 112.167 120H160C163.682 120 166.667 122.985 166.667 126.667C166.667 130.348 163.682 133.333 160 133.333H140C138.159 133.333 136.667 134.826 136.667 136.667C136.667 138.508 138.159 140 140 140H163.334C167.015 140 170 142.985 170 146.667C170 150.348 167.015 153.333 163.334 153.333H140C138.159 153.333 136.667 154.826 136.667 156.667C136.667 158.508 138.159 160 140 160H156.667C160.349 160 163.334 162.985 163.334 166.667C163.334 170.348 160.349 173.333 156.667 173.333H140C138.159 173.333 136.667 174.826 136.667 176.667C136.667 178.508 138.159 180 140 180H150C153.682 180 156.667 182.985 156.667 186.667C156.667 190.348 153.682 193.333 150 193.333H90.0002C85.3354 193.415 80.6977 192.609 76.3335 190.96C74.6443 190.223 73.0081 189.37 71.4368 188.407C70.0502 187.6 68.6568 186.8 67.2135 186.11C63.9017 184.552 60.321 183.647 56.6668 183.443V123.17C62.9298 122.615 68.9662 120.557 74.2635 117.17C95.9635 103.377 105.314 88.9532 102.054 74.3066Z" fill="white"/>
<path d="M140.033 3.23657V3.30657V3.33323C140.033 4.5599 139.73 33.3332 113.337 33.3332C111.496 33.3332 110.003 34.8256 110.003 36.6666C110.003 38.5075 111.496 39.9999 113.337 39.9999C139.627 39.9999 140.03 68.7799 140.033 69.9999C140.009 71.8409 141.481 73.3534 143.322 73.3782C145.163 73.4031 146.675 71.9309 146.7 70.0899V70.0199V69.9999C146.7 68.7732 147.003 39.9999 173.4 39.9999C175.241 39.9999 176.733 38.5075 176.733 36.6666C176.733 34.8256 175.241 33.3332 173.4 33.3332C147.107 33.3332 146.707 4.55323 146.7 3.33323C146.725 1.49228 145.253 -0.0202473 143.412 -0.0451001C141.571 -0.0699529 140.058 1.40228 140.033 3.24323V3.23657ZM158.2 36.6666C151.374 40.2673 146.098 46.2367 143.363 53.4532C140.63 46.2358 135.354 40.2658 128.527 36.6666C135.354 33.0673 140.63 27.0974 143.363 19.8799C146.098 27.0964 151.374 33.0658 158.2 36.6666Z" fill="white"/>
<path d="M56.6667 43.3333V43.3133C56.6611 41.4724 55.1643 39.9845 53.3233 39.99C51.4824 39.9955 49.9945 41.4924 50 43.3333C50 44.15 49.72 63.3333 33.3333 63.3333C31.4924 63.3333 30 64.8257 30 66.6667C30 68.5076 31.4924 70 33.3333 70C49.72 70 50 89.19 50 90V90.02C50.0055 91.861 51.5024 93.3489 53.3433 93.3433C55.1843 93.3378 56.6722 91.841 56.6667 90C56.6667 89.1833 56.9467 70 73.3333 70C75.1743 70 76.6667 68.5076 76.6667 66.6667C76.6667 64.8257 75.1743 63.3333 73.3333 63.3333C56.9467 63.3333 56.6667 44.1433 56.6667 43.3333ZM61.1467 66.6667C57.7714 68.918 55.0709 72.0437 53.3333 75.71C51.5958 72.0437 48.8953 68.918 45.52 66.6667C48.8959 64.4161 51.5967 61.2902 53.3333 57.6233C55.07 61.2902 57.7707 64.4161 61.1467 66.6667Z" fill="white"/>
<path d="M170 70C168.159 70 166.667 71.4924 166.667 73.3333V80C166.667 81.841 168.159 83.3333 170 83.3333C171.841 83.3333 173.334 81.841 173.334 80V73.3333C173.334 71.4924 171.841 70 170 70Z" fill="white"/>
<path d="M170 103.333C171.841 103.333 173.334 101.841 173.334 100V93.3333C173.334 91.4924 171.841 90 170 90C168.159 90 166.667 91.4924 166.667 93.3333V100C166.667 101.841 168.159 103.333 170 103.333Z" fill="white"/>
<path d="M176.667 89.9999H183.333C185.174 89.9999 186.667 88.5075 186.667 86.6666C186.667 84.8256 185.174 83.3333 183.333 83.3333H176.667C174.826 83.3333 173.333 84.8256 173.333 86.6666C173.333 88.5075 174.826 89.9999 176.667 89.9999Z" fill="white"/>
<path d="M163.333 89.9999C165.174 89.9999 166.667 88.5075 166.667 86.6666C166.667 84.8256 165.174 83.3333 163.333 83.3333H156.667C154.826 83.3333 153.333 84.8256 153.333 86.6666C153.333 88.5075 154.826 89.9999 156.667 89.9999H163.333Z" fill="white"/>
<path d="M85.9767 30.6898L90.9767 35.6898C92.2846 36.953 94.3636 36.935 95.6494 35.6492C96.9352 34.3634 96.9533 32.2844 95.69 30.9765L90.69 25.9765C89.8531 25.1099 88.6138 24.7624 87.4483 25.0675C86.2829 25.3725 85.3728 26.2827 85.0677 27.4481C84.7627 28.6135 85.1102 29.8529 85.9767 30.6898Z" fill="white"/>
<path d="M75.9767 20.6898C77.2847 21.9531 79.3637 21.935 80.6495 20.6492C81.9352 19.3634 81.9533 17.2844 80.6901 15.9765L75.6901 10.9765C74.3821 9.71324 72.3031 9.7313 71.0173 11.0171C69.7315 12.3029 69.7135 14.3819 70.9767 15.6898L75.9767 20.6898Z" fill="white"/>
<path d="M70.9769 35.6898C72.2786 36.9911 74.3886 36.9911 75.6903 35.6898L80.6903 30.6898C81.5568 29.8529 81.9043 28.6135 81.5993 27.4481C81.2942 26.2827 80.3841 25.3725 79.2186 25.0675C78.0532 24.7624 76.8138 25.1099 75.9769 25.9765L70.9769 30.9765C69.6757 32.2781 69.6757 34.3881 70.9769 35.6898Z" fill="white"/>
<path d="M88.3337 21.6665C89.2177 21.6663 90.0654 21.3149 90.6904 20.6898L95.6904 15.6898C96.5569 14.8529 96.9044 13.6135 96.5993 12.4481C96.2943 11.2827 95.3841 10.3725 94.2187 10.0675C93.0533 9.76241 91.8139 10.1099 90.977 10.9765L85.977 15.9765C85.024 16.9298 84.739 18.3632 85.2548 19.6086C85.7706 20.854 86.9857 21.6662 88.3337 21.6665Z" fill="white"/>
</g>
<defs>
<clipPath id="clip0_115_1086">
<rect width="200" height="200" fill="white"/>
</clipPath>
</defs>
</svg>
